<svg xmlns="http://www.w3.org/2000/svg" width="20" height="20" viewBox="0 0 20 20">
    <path fill="#FFF" fill-rule="evenodd" d="M11.028 0c1.8.004 2.181.018 3.096.06 1.064.049 1.79.218 2.427.465a4.902 4.902 0 0 1 1.771 1.153 4.902 4.902 0 0 1 1.154 1.772c.247.636.416 1.363.465 2.427.043.953.057 1.326.06 3.328L20 11.028c-.003 1.8-.018 2.181-.06 3.096-.048 1.064-.217 1.79-.464 2.427a4.902 4.902 0 0 1-1.154 1.771 4.902 4.902 0 0 1-1.771 1.154c-.636.247-1.363.416-2.427.465-.915.041-1.296.056-3.096.059H8.973c-1.8-.003-2.181-.018-3.096-.06-1.064-.048-1.791-.217-2.427-.464a4.902 4.902 0 0 1-1.772-1.154 4.902 4.902 0 0 1-1.153-1.771c-.247-.636-.416-1.363-.465-2.427-.042-.915-.056-1.296-.06-3.096V8.973c.004-1.8.018-2.181.06-3.096C.11 4.813.278 4.086.525 3.45a4.902 4.902 0 0 1 1.153-1.772A4.902 4.902 0 0 1 3.45.525C4.086.278 4.813.109 5.877.06 6.792.018 7.172.004 8.973 0zm-.74 1.802h-.575c-2.407 0-2.738.012-3.754.058-.975.045-1.504.208-1.857.345-.466.18-.8.398-1.15.748-.35.35-.566.683-.747 1.15-.137.352-.3.881-.345 1.856C1.812 7.014 1.802 7.33 1.802 10v.288c0 2.407.012 2.738.058 3.753.045.975.208 1.505.345 1.857.18.467.398.8.748 1.15.35.35.683.567 1.15.748.352.137.881.3 1.856.345.899.04 1.261.054 3 .057h2.083c1.739-.003 2.101-.016 3-.057.974-.045 1.504-.208 1.856-.345.467-.181.8-.398 1.15-.748.35-.35.567-.683.748-1.15.137-.352.3-.882.345-1.857.04-.898.054-1.26.057-2.999V8.96c-.003-1.739-.016-2.101-.057-3-.045-.975-.208-1.504-.345-1.857a3.098 3.098 0 0 0-.748-1.15 3.098 3.098 0 0 0-1.15-.747c-.352-.137-.882-.3-1.857-.345-1.054-.048-1.37-.058-4.04-.058zM10 4.865a5.135 5.135 0 1 1 0 10.27 5.135 5.135 0 0 1 0-10.27zm0 1.802a3.333 3.333 0 1 0 0 6.667 3.333 3.333 0 0 0 0-6.667zm5.339-3.205a1.2 1.2 0 1 1 0 2.4 1.2 1.2 0 0 1 0-2.4z"/>
</svg>
